<svg version="1" xmlns="http://www.w3.org/2000/svg" width="933.333" height="933.333" viewBox="0 0 700.000000 700.000000"><path d="M322.8 21.5c-.2.2-3.7.6-7.8 1-4.1.3-8.6.7-10 1-1.4.2-4.5.7-7 1.1-2.5.3-4.7.9-5 1.4-.4.7-.5 366.1-.1 368.1.2 1.1 381.1.5 381.2-.6.1-.6.2-2.1.4-3.5 2.7-22.8 2.5-64.4-.5-83.5-.5-3.3-1.1-7.8-1.4-10-.6-4.4-1.5-9.2-2.1-11.5-.2-.8-.7-2.9-1-4.5-3.7-21.1-15.2-53.9-27.6-78.6-7.8-15.6-23.8-41.8-26.1-42.7-.4-.2-.8-.8-.8-1.4 0-.5-2.1-3.5-4.6-6.6-2.5-3.1-6-7.5-7.7-9.7-7.1-8.8-12.5-14.6-24.7-26.5-14.9-14.6-14.6-14.3-27-24.2-34.3-27.2-75.6-47.9-117.8-58.8-6.3-1.7-12.4-3.2-13.6-3.4-6.4-1.3-18.6-3.6-21.8-4-2.1-.4-5.3-.8-7.1-1.1-8.1-1.3-16.9-1.8-41.4-2-14.4-.2-26.3-.2-26.5 0zM119.4 114.8c-14.2 14-36.4 39.8-36.4 42.1 0 .5-.3 1.1-.8 1.3-.8.3-16.2 23.2-16.2 24 0 .3-2.3 4.5-5.1 9.3-12.1 21.2-26.1 56.3-30.4 76.5-.2.8-1 4.4-1.9 8-.8 3.6-1.7 7.8-2 9.5-.3 1.6-.8 4.1-1.1 5.5-.9 4.9-1.5 8.6-2.1 13.9-.3 3-.8 6.4-1 7.5-.2 1.2-.7 7.3-1.1 13.6-1.5 26.7.1 66.3 2.9 68.1.5.3 26.1.6 56.9.6l56 .1-.1-147.9c-.1-81.4-.5-147.9-.9-147.9-.5 0-8 7.1-16.7 15.8zM41 460.7c1.1 3.9 2 6.5 3.1 8.8.5 1.1 1.8 4.7 3 8 3.5 9.5 17.9 37 25.4 48.5 5.6 8.6 10.9 16.1 17.2 24.5 7.7 10.1 27.8 31.4 39.6 41.9l7.7 6.8V458H40.1l.9 2.7zM292.5 564.5c0 96 .2 106.7 1.6 107.5.8.5 3.8 1.2 6.6 1.5 2.7.3 5.9.7 7 .9 10.6 2.1 57.2 2.9 71.3 1.3 29.3-3.4 49.3-7.7 76-16.7 17.7-5.9 27.1-9.9 45.5-19.3 12-6.1 41.9-25 45.9-28.9.7-.7 2.8-2.4 4.6-3.8 1.8-1.4 5-3.9 6.9-5.5 2-1.7 4.7-3.9 6-5 9.4-7.7 34-33.7 42.1-44.4 2-2.6 4.1-5.4 4.8-6.2 7.5-8.5 25.8-38.5 34-55.9 4.9-10.3 13.2-30 13.2-31.3 0-.2-82.2-.5-182.8-.6l-182.7-.2v106.6z"/></svg>