<svg version="1" xmlns="http://www.w3.org/2000/svg" width="1102.667" height="1102.667" viewBox="0 0 827.000000 827.000000"><path d="M390.9 1.1c-14.6.6-40.1 3.3-45.8 4.8l-2.6.7v464.9l238.1.2c130.9.1 239 0 240.1-.3 2.5-.7 2.8-2.3 4.3-19.4 10.6-127.5-33.8-246.9-124.6-335C642.1 60.4 571.7 23.6 492 8.1c-31.9-6.2-65-8.5-101.1-7zM135.5 107.8C56 179.8 7.6 280.6.9 388c-1.7 27.6.5 81.4 3.5 83.2.6.4 33.1.6 72.1.5l71-.2.2-185c.1-101.8-.2-185.8-.6-186.8-.6-1.5-2.4-.2-11.6 8.1zM25 551.4c0 2 5.8 17.9 11 30.1 20.9 49.2 55.4 97.4 96.4 134.6 7.2 6.5 13.7 11.9 14.4 11.9 1 0 1.2-18.1 1-88.8l-.3-88.7-61.2-.3c-53.2-.2-61.3 0-61.3 1.2zM342.5 551.2c-.3.7-.4 61.6-.3 135.3l.3 134 6.5 1.2c19.2 3.5 36 4.7 64.5 4.7 31.1 0 46-1.2 72.5-6C615.5 796.9 724.5 715 783.7 596.5c8.8-17.6 19.9-44.3 18.8-45.3-.4-.4-103.9-.8-230.1-1-185.4-.2-229.5 0-229.9 1z"/></svg>