<?xml version="1.0" encoding="utf-8"?>
<!-- Generator: Adobe Illustrator 22.1.0, SVG Export Plug-In . SVG Version: 6.00 Build 0)  -->
<svg version="1.1" id="Layer_1" xmlns="http://www.w3.org/2000/svg" xmlns:xlink="http://www.w3.org/1999/xlink" x="0px" y="0px"
	 viewBox="0 0 500 195.2" style="enable-background:new 0 0 500 195.2;" xml:space="preserve">
<style type="text/css">
	.st0{clip-path:url(#SVGID_2_); fill:#010101}
</style>
<g>
	<defs>
		<rect id="SVGID_1_" width="500" height="195.2"/>
	</defs>
	<clipPath id="SVGID_2_">
		<use xlink:href="#SVGID_1_"  style="overflow:visible;"/>
	</clipPath>
	<g class="st0">
		<g>
			<path d="M79.3,76.5c3.7,13.6,7.5,27.2,11.2,40.8c0.1,0,0.3,0,0.4,0c3.3-13.6,6.1-27.2,9.7-41c6.1,0,12.1,0,18.2,0
				c0,0.6-0.1,1.1-0.1,1.6c-1.1,0.2-1.9,0.4-2.8,0.6c-1.7,0.5-2.1,1.1-2.2,2.8c0,0.4,0,0.7,0,1.1c0,16.2,0,32.4,0,48.6
				c0,0.9,0.2,1.8,0.3,2.7c2.1,0.9,4,1,5.9-0.1c2.6-1.6,4.3-3.9,5.2-6.8c2.3-7.1,4.5-14.2,6.9-21.3c3.1-9.5,6.2-18.9,9.4-28.4
				c0.4-1.1,0.6-2.2,2.2-2.4c0,10.4,0,20.7,0,30.9c-0.1,0-0.2,0.1-0.2,0.1c-1-2.9-2.1-5.9-3.1-8.8c-0.1,0-0.2,0-0.3,0
				c-2,6.1-3.9,12.2-6,18.5c3.4-0.2,6.5-0.4,9.7-0.6c0,1.2,0,2.2,0,3.4c-3.6,0.3-7.1,0.6-10.9,0.9c-0.9,3-2,6.1-2.8,9.1
				c-0.4,1.5,0.3,2.7,1.8,3.3c1.3,0.5,2.7,0.8,4.1,1.1c0.8,0.2,1.6,0.3,1.3,1.6c-0.5,0.1-1,0.3-1.6,0.4c-12.4,1.1-24.7,2.2-37,4.3
				c-0.2,0-0.5,0-0.9,0c0-0.5,0-1-0.1-1.6c0.7-0.3,1.3-0.5,1.9-0.7c2.3-0.9,2.8-1.5,2.8-4c0-6.9,0-13.7,0-20.6c0-7.1,0-14.1,0-21.2
				c0-0.6,0-1.1,0-1.7c-0.1,0-0.2,0-0.4-0.1c-0.1,0.4-0.3,0.8-0.4,1.2c-3.6,15.5-7.2,30.9-10.8,46.4c-0.1,0.3-0.2,0.7-0.3,1
				c-0.6,2.5-1.7,3.1-4.6,2.7c-0.3-0.7-0.7-1.4-0.9-2.3c-4-14.5-8.1-29-12.1-43.5c-0.2-0.6-0.3-1.2-0.5-1.9c-0.2,0-0.3,0-0.5,0
				c-0.1,0.5-0.1,1-0.1,1.5c0,9.9,0,19.8,0,29.8c0,3.3,0,6.7,0,10c0,4.3,1.4,6,5.6,6.7c0.2,0,0.3,0.1,0.6,0.2c0,0.5,0,1,0,1.7
				c-5.3,1.1-10.5,2.2-15.7,3.4c-0.6-1-0.4-1.7,0.4-2.2c3.8-2.1,5-5.5,4.9-9.6c-0.1-16,0-31.9,0-47.9c0-1.1,0-2.2-0.2-3.2
				c-0.4-2.3-1.7-3.9-4-4.6c-0.3-0.1-0.7-0.3-1.1-0.5c0-0.6,0-1.1,0-1.8C67.8,76.5,73.3,76.5,79.3,76.5z"/>
			<path d="M5.6,177.8c3.5-1.1,7-2.2,10.6-3.3c20-6,40.4-10.6,61-14.4c16.6-3,33.4-5.5,50.2-7.4c13.5-1.5,27.1-2.7,40.7-3.8
				c27.5-2.1,55.1-3,82.8-2.6c15.7,0.2,31.3,0.7,46.9,1.4c18.6,0.8,37.2,2.4,55.7,4.4c25.8,2.9,51.5,6.8,76.9,12.3
				c16.6,3.6,33.1,7.9,49.3,13.2c0.5,0.2,1,0.3,1.4,0.8c-1.1-0.3-2.3-0.5-3.4-0.8c-18.9-4.9-38.1-8.7-57.4-11.8
				c-17-2.7-34-5-51.2-6.7c-15.6-1.5-31.2-2.7-46.8-3.8c-32.3-2.1-64.7-2.7-97.1-2.3c-12.5,0.2-25.1,0.4-37.6,1
				c-16,0.8-32,1.7-47.9,2.9c-19.4,1.4-38.8,3.6-58.1,6.3c-24.5,3.5-48.8,7.9-72.8,14c-1,0.3-2.1,0.5-3.1,0.8
				C5.7,178.1,5.7,178,5.6,177.8z"/>
			<path d="M420.7,123.3c0.7-0.2,1.2-0.3,1.9-0.6c0.2,0.7,0.4,1.3,0.5,1.8c2.5,8.6,7.3,15.6,14.7,20.8c4.3,3,9,4.1,14.1,3
				c5.1-1.1,7.8-5.2,6.9-10.4c-0.5-2.9-2-5.4-3.8-7.6c-2.9-3.4-6.5-6-10.4-8.1c-2.3-1.2-4.6-2.3-6.8-3.6c-3.1-2-6.2-3.9-8.9-6.3
				c-6.9-6-8.9-13.8-7.2-22.6c1.2-6.1,5-10.3,10.7-12.8c4.4-1.9,9-2.6,13.7-2.3c4.9,0.4,9.7,1.3,14.6,1.8c1.9,0.2,3.8,0,5.7,0
				c0.6,0,1.3-0.1,2-0.2c0.8,7.3,1.5,14.4,2.3,21.6c-0.7,0.1-1.2,0.2-1.8,0.3c-0.3-0.6-0.5-1-0.6-1.4c-4-9.6-11.3-15.3-21.4-17.5
				c-3.2-0.7-6.5-0.2-9.5,1c-5.8,2.3-7.3,8.7-3.1,13.3c1.3,1.4,2.9,2.7,4.6,3.7c3.3,1.8,6.7,3.4,10.2,4.8c5.8,2.4,11.3,5.1,16,9.4
				c8.2,7.5,11.2,16.9,9.7,27.7c-1.1,7.5-5.5,12.4-12.9,14.5c-5.3,1.5-10.6,1.4-16,0.6c-6.6-0.9-12.9-2.9-19-5.6
				c-1.4-0.6-2.7-1.5-4.1-2.2c-1.3-0.7-1.8-1.8-1.8-3.4c0.1-5.4,0-10.8,0-16.1C420.9,125.9,420.8,124.8,420.7,123.3z"/>
			<path d="M5.2,128c0.6-0.3,1-0.5,1.6-0.8c0.4,0.6,0.8,1.1,1.1,1.7c2.9,5.6,6.6,10.7,11.5,14.7c3.8,3.1,8,5.6,13,6
				c4.7,0.3,9-1,12.5-4.3c3.5-3.3,4.2-8.5,2-12.7c-1.4-2.7-3.6-4.8-6.2-6.3c-2.3-1.3-4.7-2.3-7.1-3.4c-3.6-1.6-7.2-3-10.7-4.5
				c-1.1-0.5-2.1-1.2-3.1-1.8c-7.4-4.9-10.3-11.9-9.6-20.6c0.5-6.7,3.3-12.3,8.9-16.2c4.6-3.2,9.8-4.5,15.4-4.8
				c4.7-0.3,9.3,0.4,13.9,1.5c2.4,0.6,4.7,0.6,7.1,0.1c0.3-0.1,0.6,0,1.2,0c1.1,6.7,2.2,13.4,3.3,20.3c-0.5,0.2-0.9,0.3-1.4,0.5
				c-0.3-0.4-0.5-0.8-0.6-1.1c-1.8-4.7-4.8-8.5-8.7-11.6c-2.9-2.3-6.1-4.1-9.7-4.7c-3.9-0.7-7.7-0.2-11.2,1.4
				c-6.5,3-7.5,10.6-1.9,15.2c2.7,2.2,5.8,3.5,9,4.7c1.9,0.7,3.8,1.1,5.6,1.8c3,1.2,6.1,2.3,8.9,3.8c9.3,5.2,13.1,13.5,12.5,24
				c-0.6,10.7-6.3,17.8-16.2,21.8c-5.5,2.2-11.3,2.9-17.1,3.5c-4.1,0.4-8.2,0.7-12.3,0c-1.3-0.2-2.5-0.6-3.8-1
				c-1.6-0.4-2.4-1.6-2.7-3.2c-0.6-3.5-1.1-7-1.9-10.4c-0.8-4-1.8-7.9-2.7-11.9C5.4,129.1,5.3,128.7,5.2,128z"/>
			<path d="M312,132.2c0-0.5-0.1-1-0.1-1.4c1.8-0.6,3.9,0.1,5.4-1.6c0-0.6,0.1-1.3,0.1-2c0-15.2,0-30.3,0-45.5
				c0-2.4-0.5-2.9-2.8-3.4c-0.9-0.2-1.7-0.3-2.6-0.4c-0.1-0.3-0.2-0.6-0.2-0.8c0-0.3,0.2-0.5,0.3-0.9c0.6,0,1.1-0.1,1.6-0.1
				c8.3,0,16.6,0,24.9,0c2.8,0,5.5,0.4,8.1,1.4c5.5,2.1,8.7,6.4,8.6,12.3c0,2.2-0.3,4.5-0.8,6.7c-0.9,3.4-3.1,5.8-6.5,7.2
				c-0.4,0.2-0.9,0.4-1.4,0.6c0.4,0.9,0.7,1.7,1.1,2.5c4.5,7.9,8.9,15.8,13.4,23.7c0.2,0.4,0.5,0.8,0.8,1.2c1.5,2,3.3,3.8,6,4
				c0,1.1-0.5,1.4-1.2,1.4c-5.5,0.3-10.9-0.2-15.8-3.1c-2.3-1.4-4.1-3.2-5.4-5.6c-3.5-6.5-7-13.1-10.4-19.6c-0.9-1.8-2.1-3-4.3-3.1
				c-0.1,0.4-0.2,0.8-0.2,1.2c0,7.2,0,14.3,0,21.5c0,2,0.5,2.7,2.4,3.2c0.9,0.2,1.7,0.4,2.7,0.6c0,0.5,0.1,0.9,0.1,1.6
				C327.9,133.1,320,132.7,312,132.2z M330.7,79.2c0,3.9,0,7.7,0,11.5c0,2.5,0,5,0,7.5c0,1.2,0.3,2.2,1.5,2.9
				c2.4,1.3,5.9,0.8,7.7-1.3c0.7-0.8,1.3-1.7,1.7-2.7c1.3-3.4,1.7-7,0.9-10.6C341.2,80.6,337,77.9,330.7,79.2z"/>
			<path d="M301.3,102.6c7.6,1,13.5,7.9,12,17.6c-1,6.7-4.9,10.3-11.8,10.8c-2.8,0.2-5.7,0.1-8.6,0c-7.2-0.3-14.3-0.6-21.5-0.9
				c-0.4,0-0.8-0.1-1.3-0.1c0-0.5-0.1-0.8-0.1-1.4c1-0.2,1.9-0.3,2.9-0.5c1.8-0.3,2.2-0.8,2.2-2.6c0-14.9,0-29.9,0-44.8
				c0-1.7-0.5-2.3-2.1-2.6c-0.9-0.2-1.9-0.4-3-0.6c0-0.4-0.1-0.9-0.2-1.4c0.6-0.1,1-0.2,1.4-0.2c6,0,12.1,0,18.1,0
				c2.9,0,5.8,0.1,8.8,0.3c0.6,0,1.3,0.2,1.9,0.3c7.2,1.7,11,7,10.4,14.3c-0.2,2.2-0.7,4.2-1.7,6.2c-1.4,2.6-3.4,4.5-6.3,5.1
				C302,102.3,301.7,102.5,301.3,102.6z M287.7,104.1c-0.1,0.2-0.2,0.3-0.2,0.4c0,6.7,0,13.4,0,20.1c0,0.9,0.4,1.4,1.1,1.9
				c4.3,3.2,10.3,1.3,11.9-3.8c0.8-2.7,1-5.4,0.6-8.2C300.1,107.4,295.1,103.4,287.7,104.1z M287.6,100.7c1.3,0.1,2.6,0.2,3.8,0.4
				c2.7,0.3,4.6-0.9,5.6-3.2c2.1-4.6,2.5-9.3,0.5-14c-1.8-4.3-5.3-5.9-9.9-4.8C287.6,86.2,287.6,93.4,287.6,100.7z"/>
			<path d="M229.8,128.2c0,0.5,0.1,0.9,0.1,1.6c-7.4,0-14.6,0-21.8,0c0-0.1-0.2-0.3-0.2-0.4c0-0.3,0.1-0.5,0.2-0.9
				c1.1-0.2,2.1-0.4,3-0.6c1.5-0.4,1.9-1,2-2.5c0-0.4,0-0.8,0-1.3c0-14,0-28.1,0-42.1c0-3.2-0.3-3.5-3.4-4.1
				c-0.5-0.1-0.9-0.1-1.4-0.2c-0.1-0.2-0.3-0.4-0.4-0.6c-0.1-0.2,0-0.5,0-0.6c0.5-0.6,18.4-0.7,21.8-0.3c0,0.4,0,0.8,0.1,1.3
				c-1.1,0.2-2.1,0.4-3.1,0.7c-1.1,0.3-1.7,1-1.7,2.2c0,6.5,0,12.9,0,19.4c0,0.1,0.1,0.2,0.2,0.5c4.2,0,8.4,0,12.8,0
				c0-0.6,0.1-1.2,0.1-1.9c0-5.6,0-11.2,0-16.9c0-2.6-0.4-3.1-2.9-3.6c-0.5-0.1-1.1-0.2-1.6-0.3c-0.1-0.3-0.3-0.5-0.3-0.8
				c0-0.2,0.1-0.4,0.2-0.7c7.2,0,14.3,0,21.4,0c0.1,0.2,0.3,0.4,0.3,0.5c0,0.3-0.1,0.6-0.2,0.9c-0.9,0.2-1.8,0.3-2.7,0.5
				c-2,0.4-2.4,0.9-2.4,2.9c0,14.7,0,29.4,0.1,44.1c0,1.9,0.5,2.5,2.4,2.9c0.8,0.2,1.6,0.3,2.6,0.5c0.1,0.4,0.2,0.8,0.4,1.5
				c-7.4-0.1-14.6-0.2-21.9-0.4c-0.1-0.2-0.3-0.4-0.3-0.6c0-0.3,0.2-0.5,0.2-0.8c1.1-0.2,2.1-0.4,3-0.6c1-0.3,1.6-1,1.6-2.1
				c0-7,0-14-0.1-21c0-0.1-0.1-0.2-0.2-0.4c-4.2,0-8.4,0-12.7,0c0,0.7-0.1,1.3-0.1,1.8c0,6.2,0,12.3,0,18.5c0,2.5,0.5,3,2.9,3.5
				C228.5,128,229.1,128,229.8,128.2z"/>
			<path d="M347,36.1c1,2.6,2,5.2,3.1,7.7c1,2.5,2.1,4.9,3.2,7.5c-4.7,0-9.3,0-14,0c-0.7-1.7-1.4-3.4-2.1-5.2
				c-0.8-1.9-1.5-3.8-2.3-5.6c-1.2-2.9-3.4-4-6.8-3.5c0,4.7,0,9.5,0,14.3c-4.6,0-9.1,0-13.8,0c0-0.7,0-1.4,0-2.1
				c0-11.3,0-22.6,0-33.9c0-0.8,0-1.6-0.1-2.3c-0.2-1.7-0.9-2.3-2.6-2.3c-0.6,0-1.2,0-1.9,0c-0.1-0.6-0.2-1.1-0.2-1.6
				c0.5-0.2,0.8-0.3,1.2-0.4c3.1-0.4,6.2-0.8,9.2-1.2c5.3-0.7,10.7-1.5,16-2c2.7-0.3,5.4-0.2,8,0.1c6.8,0.9,10.7,4.8,11.3,11.6
				c0.3,2.8,0,5.7-0.4,8.5c-0.6,3.9-2.8,6.9-6.1,9.1C348.2,35.3,347.7,35.6,347,36.1z M328,9.5c0,0.7-0.1,1.3-0.1,1.9
				c0,6,0.1,11.9,0,17.9c0,2.2,0.8,3.4,3.4,3.7c4.1,0.5,7.1-1.1,8.9-4.8c1.7-3.6,2.2-7.4,1.6-11.3c-0.6-3.9-3-6.4-6.8-7.4
				C332.7,8.8,330.5,8.8,328,9.5z"/>
			<path d="M169.9,128.2c-1-5.4-1.9-10.5-2.8-15.8c0.3-0.1,0.7-0.3,1.3-0.5c0.3,0.6,0.6,1.2,0.8,1.7c2.7,5.6,6.5,10.1,12.1,13.1
				c3.3,1.8,6.8,2.1,10.4,0.9c1-0.3,1.9-0.8,2.7-1.3c2.6-1.8,3.6-5.1,2.2-7.9c-0.8-1.6-1.9-3-3.2-4.2c-2.2-2.1-4.9-3.3-7.7-4.5
				c-3.3-1.4-6.5-2.9-9.4-5.1c-7.5-5.5-7.9-13.7-6.1-19.5c1.5-4.8,4.9-7.6,9.6-9.1c4.8-1.5,9.7-1.3,14.5-0.3
				c1.2,0.3,2.3,0.7,3.5,0.8c1.6,0.2,3.3,0.3,5,0.5c0.5,0,1,0,1.7,0c0.8,5.3,1.6,10.6,2.5,16c-0.6,0.1-0.9,0.1-1.3,0.1
				c-0.3-0.6-0.5-1.2-0.7-1.7c-2.1-4.6-5.3-8.2-9.5-10.9c-4.3-2.7-8.8-2.6-13.2-0.8c-4,1.5-5.1,6.2-2.4,9.5c1.2,1.4,2.8,2.6,4.5,3.5
				c2.2,1.2,4.5,2.1,6.9,3c3.5,1.3,6.9,2.8,9.9,5c8,5.8,8.7,14.4,6.4,20.7c-1.5,4.2-4.5,6.8-8.5,8.5c-5.6,2.3-11.4,2.6-17.3,1.9
				c-3.5-0.4-6.8-1.2-10-2.6C171,128.9,170.4,128.5,169.9,128.2z"/>
			<path d="M243.8,42.2c0,3.1,0,6,0,9.1c-4.5,0-8.9,0-13.5,0c0-0.6-0.1-1.3-0.1-1.9c0-10.6,0-21.3,0-31.9c0-0.5,0-1,0-1.4
				c-0.1-2.5-1-3.6-3.5-3.9c-0.6-0.1-1.3-0.1-2.1-0.2c-0.1-0.5-0.1-1-0.2-1.5c0.3-0.2,0.4-0.3,0.6-0.3c0.5-0.1,1.1-0.1,1.6-0.1
				c7.4,0,14.8-0.1,22.2,0c2.4,0,4.9,0.3,7.3,0.9c9.2,2.4,13.4,9.5,11.2,18.7c-2.2,9.4-11,14.9-20.8,13.1
				C245.7,42.6,244.9,42.4,243.8,42.2z M243.9,37.8c0.3,0.2,0.6,0.3,0.8,0.4c3.4,1.1,7.1-0.6,8.7-4.2c2.2-5.1,2.4-10.3,0.4-15.5
				c-1.5-3.9-5.7-6.1-9.9-5.5C243.9,21.3,243.9,29.5,243.9,37.8z"/>
			<path d="M386.1,113.4c0-11.7,0-23.3,0-35.2c9.2-1,17.3,1.6,24,8c7.7,7.4,10.4,16.6,8.8,27.2C407.9,113.4,397.1,113.4,386.1,113.4
				z"/>
			<path d="M284.6,36.5c0,5,0,9.8,0,14.8c-4.5,0-8.8,0-13.4,0c0-0.7,0-1.3,0-1.9c0-10.7,0-21.4,0-32.1c0-0.5,0-1,0-1.4
				c-0.1-2.4-0.9-3.3-3.3-3.6c-0.8-0.1-1.7-0.1-2.7-0.2c-0.1-0.6-0.1-1.1-0.2-1.6c1.8-0.6,38.1-1.6,39.7-1.1
				c0.5,4.6,1.1,9.3,1.7,14.1c-0.4,0.2-0.7,0.4-1,0.5c-0.2-0.2-0.4-0.4-0.5-0.6c-0.8-1.8-1.5-3.6-2.3-5.4c-1.6-3.6-4.6-5.4-8.3-5.6
				c-3.1-0.2-6.3,0-9.6,0.1c0,7.3,0,14.3,0,21.6c2.2,0,4.4-0.1,6.3-0.9c1.1-0.5,2.2-1.5,2.9-2.6c1-1.7,1.7-3.7,2.5-5.5
				c0.3-0.7,0.4-1.4,0.6-2.1c0.4,0,0.8-0.1,1.3-0.1c0,7.8,0,15.5,0,23.3c-0.4,0-0.8,0.1-1.2,0.1c-0.3-1-0.6-2-0.9-3
				c-0.1-0.4-0.3-0.8-0.4-1.2c-1.9-4.6-3.8-5.9-8.8-5.7C286.2,36.3,285.5,36.4,284.6,36.5z"/>
			<path d="M172.4,130.3c0,0.5,0,0.8,0,1.4c-8.4,0.6-16.8,1.2-25.2,1.8c-0.5-0.9-0.3-1.5,0.6-1.8c0.6-0.2,1.3-0.3,1.9-0.5
				c0.7-0.2,1.3-0.6,2.1-0.9c-1.3-4.2-2.8-8.1-4.1-12.1c-0.8,0-1.6,0-2.4,0c0-1,0-2.1,0-3.3c0.2-0.1,0.6-0.3,1-0.4
				c-0.1-0.3-0.1-0.6-0.2-0.8c-0.9-2-1-4.1-1-6.3c0-10.1,0-20.2,0-30.3c0-0.6,0-1.3,0-2.1c1.1,0.4,1.2,1.3,1.5,2
				c3.4,8.7,6.7,17.4,10,26c2.9,7.5,6,14.9,8.8,22.5c1,2.8,2.8,4.2,5.6,4.5C171.5,130,171.9,130.2,172.4,130.3z"/>
			<path d="M174.9,10.6c-0.1-0.3-0.2-0.6-0.2-0.8c0-0.3,0.1-0.6,0.2-1.1c8.2,0.3,16.3,0.5,24.6,0.8c0,0.7,0,1.2,0,1.8
				c-0.9,0.1-1.7,0.1-2.4,0.2c-2.1,0.3-3.1,1.4-3.1,3.5c0,10-0.1,19.9,0.1,29.9c0,2.1,0.7,4.2,1.2,6.5c-4.4,0.2-9,0-13.7,0.1
				c-0.8-2.2-1-4.3-1.1-6.5c0-9.1,0-18.2,0-27.2c0-1,0-1.9,0-2.9c0-2.4-1-3.5-3.3-4C176.4,10.7,175.7,10.7,174.9,10.6z"/>
			<path d="M145.2,20.1c3.9,3.4,8.2,5.3,12.7,7.1c3.8,1.6,7.2,3.7,10.1,6.7c4.1,4.3,6.1,9.5,5.9,15.4c0,0.6-0.1,1.2-0.2,2.1
				c-3.4,0-6.7,0-10,0c-1.1-4.4-4.3-7-7.9-9.1c-2.4-1.4-4.9-2.6-7.4-4c-1-0.6-2.1-1.2-3.2-1.8C145.2,31.1,145.2,25.8,145.2,20.1z"/>
			<path d="M386.1,137.1c0-5.9,0-11.8,0-17.7c10.3,0,20.4,0,30.6,0C413.7,128.2,402.1,139.1,386.1,137.1z"/>
			<path d="M276.2,172.5c-0.2,1.2-0.5,2.2-0.5,3.2c-0.1,3.3,0,6.6,0,9.9c0,1.2,0.2,2.5,0.3,3.9c-2.5,0-5.1,0-7.5,0
				c0.2-2.3,0.4-4.6,0.7-6.9c-0.2,0-0.3-0.1-0.5-0.1c-1.4,2.4-2.9,4.8-4.3,7.1c-2,0-3.8,0-5.8,0c0.1-0.4,0.1-0.9,0.2-1.3
				c-1.2-2.1-2.4-4.2-3.6-6.3c-0.1,0-0.3,0.1-0.4,0.1c0.1,2.5,0.2,4.9,0.3,7.5c-1.8,0-3.7,0-5.6,0c1.4-4.9,0.5-9.9,0.8-14.7
				c-0.7-0.7-1.3-1.4-2-2.2c2.4,0,4.5,0,6.8,0c2.1,3.6,4.3,7.3,6.6,11.3c2.4-3.9,4.7-7.6,7-11.3
				C271.2,172.5,273.8,172.5,276.2,172.5z"/>
			<path d="M265.1,64.4c0-0.6-0.1-1.1-0.1-1.5c0.3-0.2,0.4-0.3,0.6-0.3c0.8-0.1,1.7-0.1,2.5-0.3c2.1-0.4,3-1.4,3.1-3.5
				c0-2.1,0-4.2,0-6.3c4.5,0,8.8,0,13.4,0c0,1.5,0,3,0,4.5c0,3.7,0.7,4.4,4.4,4.4c1.6,0,3.1-0.1,4.7,0c2,0,3.8-0.5,5.3-1.8
				c1.5-1.3,2.9-2.9,4.2-4.4c0.7-0.8,1.1-1.7,1.7-2.6c0.8,0,1.7,0,2.7,0c-0.6,4.1-1.2,8-1.8,12C292.1,64.4,278.7,64.4,265.1,64.4z"
				/>
			<path d="M196.1,52.4c4.2,5.7,12.4,5.2,15.5,0c1.6,0,3.3,0,5.1,0c-0.1,0.5-0.1,1-0.2,1.4c-1.9,5.8-5.8,9.3-11.8,10.4
				c-4.1,0.7-8.2,0.5-12.2-0.8c-5-1.7-8.4-5-10.4-9.9c-0.1-0.3-0.2-0.5-0.3-1C186.6,52.4,191.3,52.4,196.1,52.4z"/>
			<path d="M143.7,35.3c-8-3.9-12.9-13.8-11-21.8c1.2-4.9,6-9,11-9.2c-0.2,2.6,0.5,5.2-0.7,7.7c-0.7,1.6-0.5,3.4,0.2,5.1
				c0.2,0.5,0.5,1.1,0.5,1.7C143.7,24.2,143.7,29.6,143.7,35.3z"/>
			<path d="M76.1,174.7c-0.6-0.7-1.2-1.3-2-2.2c1.7,0,3.1,0,4.5,0c1.4,0,2.8,0,4.2,0c0,2.4,0,4.7,0,7c0,2.2-0.2,4.5,0.2,6.8
				c2.8,0,5.4,0,8.2,0c0-4.6,0-9.1,0-13.8c2.2,0,4.3,0,6.5,0c0,5.6,0,11.2,0,16.9c-0.5,0-1,0.1-1.4,0.1c-4.6,0-9.2,0-13.8,0
				c-4,0-6.3-2.3-6.4-6.3C76.1,180.4,76.1,177.5,76.1,174.7z"/>
			<path d="M370.9,84.9c0,9.6,0,18.9,0,28.6c-3.5,0-6.9,0.1-10.3,0C358.1,103.6,362.6,90.7,370.9,84.9z"/>
			<path d="M207.8,11.5c0-0.6,0-1,0-1.8c5.2,0.2,10.2,0.3,15.5,0.5c0,0.7,0,1.2,0,1.8c-0.8,0-1.4,0.1-2,0.1
				c-2.5,0.2-3.5,1.3-3.5,3.8c0,9.5,0,19,0,28.5c0,2.3-0.2,4.5-0.4,6.9c-1.8,0-3.5,0-5.3,0c1.4-4.3,0.9-8.6,1-12.8
				c0-7.3,0-14.6,0-21.8c0-0.5,0-1,0-1.4c-0.1-2-1-3-3-3.4C209.3,11.7,208.7,11.6,207.8,11.5z"/>
			<path d="M409.3,172.6c-0.9,1.5-1.7,2.8-2.6,4.2c-0.5-0.6-0.8-1.1-1.1-1.5c-2.4,0-4.8,0-7.3,0c0,1.3,0,2.5,0,3.9c2.5,0,5,0,7.5,0
				c0.5,0.8,0.9,1.6,1.5,2.6c-3.2,0-6,0-9,0c0,1.6,0,3,0,4.6c3.1,0,6.2,0,9.4,0c0.6,1,1.1,2,1.8,3.1c-6.4,0-12.5,0-18.7,0
				c1.4-4.9,0.5-9.8,0.8-14.7c-0.7-0.7-1.3-1.4-2-2.2C396.1,172.6,402.5,172.6,409.3,172.6z"/>
			<path d="M230.3,52.4c4.6,0,8.9,0,13.5,0c0,0.9,0,1.7,0,2.6c0,1.3,0,2.5,0,3.8c0.1,2.1,1.1,3.2,3.1,3.5c0.8,0.1,1.6,0.2,2.6,0.3
				c0,0.6,0,1.1,0,1.7c-8.3,0-16.5,0-24.9,0c0-0.5-0.1-1-0.1-1.7c0.8-0.1,1.4-0.2,2-0.2c2.7-0.3,3.7-1.4,3.8-4
				C230.3,56.4,230.3,54.5,230.3,52.4z"/>
			<path d="M309.6,64.2c0-0.5,0-1,0-1.5c0.6-0.1,1-0.2,1.5-0.2c2.3-0.3,3.1-1.2,3.2-3.6c0.1-1.7,0-3.3,0-5c0-0.5,0.1-0.9,0.1-1.4
				c0.4,0,0.8-0.1,1.1-0.1c4.1,0,8.1,0,12.4,0c0,1.1,0,2.1,0,3.1c0,0.5,0,1.1,0,1.6c0,4.5,0.3,4.9,4.9,5.5c0.1,0.5,0.1,1,0.2,1.5
				C331.6,64.5,311.6,64.6,309.6,64.2z"/>
			<path d="M163.9,52.4c3.1,0,6.3,0,9.5,0c-0.5,2.6-1.8,4.7-3.4,6.5c-2.4,2.6-5.4,4.1-8.7,5.2c-5.2,1.7-10.6,1.4-16,1.1
				c0-2.8,0-5.4,0-8.2c0.9,0.3,1.6,0.6,2.3,0.9c3.1,1.1,6.3,1.9,9.6,1.4c4-0.6,5.7-2.3,6.5-6.3C163.7,52.8,163.8,52.6,163.9,52.4z"
				/>
			<path d="M339.5,52.4c5,0,9.6,0,14.2,0c0.6,1.3,1.2,2.5,1.8,3.7c1.8,3.9,4.8,6.3,9.2,6.7c0.2,0,0.3,0.1,0.5,0.1
				c0.1,0,0.1,0.1,0.3,0.2c0,0.4-0.1,0.8-0.1,1.3c-0.3,0.1-0.5,0.3-0.7,0.3c-4.3,0-8.6,0.2-12.9,0c-4-0.3-7.3-2.3-9.4-5.8
				C341.3,57,340.6,54.8,339.5,52.4z"/>
			<path d="M307.7,174.2c-0.4-0.6-0.6-1.1-1-1.7c2.4,0,4.5,0,6.9,0c3.2,5.5,6.5,11.2,9.9,16.9c-2.5,0-5.1,0-7.5,0
				c-0.8-1.7-1.6-3.4-2.5-5c-3,0-5.8,0-8.8,0c-1,1.7-1.9,3.4-2.9,5.1c-1.3,0-2.6,0-3.9,0c1.7-2.6,3.4-5.1,5-7.7
				C304.6,179.4,306.1,176.8,307.7,174.2z M312.1,181.7c-0.9-1.7-1.7-3.2-2.7-5c-1,1.8-1.9,3.3-2.9,5
				C308.4,181.7,310.1,181.7,312.1,181.7z"/>
			<path d="M171.4,189.5c1.3-4.5,0.5-9,0.8-13.8c-2.3,0-4.5,0-7,0c0.8-1.2,1.4-2.2,1.9-3.1c6.5,0,12.8,0,19.5,0
				c-0.7,1.3-1.4,2.3-1.9,3.3c-2,0-3.8,0-5.7,0c0,4.5,0,9,0,13.7C176.6,189.5,174,189.5,171.4,189.5z"/>
			<path d="M365.1,172.6c-0.8,1.2-1.4,2.3-2,3.2c-1.9,0-3.8,0-5.9,0c0.1,4.5-0.3,9,0.4,13.7c-2.6,0-5.2,0-7.8,0
				c1.3-4.5,0.5-9.1,0.7-13.8c-2.3,0-4.5,0-6.9,0c0.8-1.2,1.4-2.2,1.9-3.1C351.9,172.6,358.3,172.6,365.1,172.6z"/>
			<path d="M145.2,3.9c3.5-0.4,6.8-0.3,10.1,0.5c3.2,0.8,6.3,1.8,9.4,2.8c1.7,0.6,3.3,1.1,5,0.8c0.3-0.1,0.6,0.1,1.1,0.2
				c0.7,5.2,1.4,10.5,2.2,15.9c-0.3,0.1-0.7,0.1-1.1,0.2c-0.2-0.5-0.4-0.9-0.5-1.2c-2.3-5.8-6.3-10.1-11.6-13.1
				c-4.6-2.6-9.4-3.1-14.5-1.2C145.2,7.2,145.2,5.7,145.2,3.9z"/>
			<path d="M142.5,186.4c0.6,1.1,1.1,2.1,1.6,3.1c-6.1,0-11.9,0-17.9,0c1.1-2.5,0.8-5,0.8-7.5c0-2.4,0-4.9,0-7.4
				c-0.6-0.7-1.2-1.3-1.9-2.1c3.1,0,5.9,0,8.8,0c-0.3,4.6-0.2,9.2-0.1,13.8C136.8,186.4,139.6,186.4,142.5,186.4z"/>
			<path d="M130.7,52.4c2.9,0,5.4,0,8,0c1.6,1.2,3.2,2.4,4.9,3.6c0,2.8,0,5.7,0,8.8c-0.4,0-0.8,0.1-1.2,0.1
				c-2.4-0.5-4.8-0.9-7.2-1.4c-1.7-0.4-2.7-1.5-3-3.3C131.8,57.6,131.2,55.1,130.7,52.4z"/>
			<path d="M220.4,189.5c-2.5,0-5,0-7.6,0c1.4-5,0.5-9.9,0.8-14.7c-0.7-0.8-1.3-1.4-2-2.2c3.1,0,5.9,0,8.8,0
				C220.4,178.2,220.4,183.8,220.4,189.5z"/>
			<path d="M488.9,151.1c0,2.8-2.3,5.1-5.1,5.1c-2.8,0-5.1-2.3-5.1-5.1c0-2.8,2.3-5.2,5.1-5.2C486.6,146,488.9,148.3,488.9,151.1z"
				/>
			<path d="M489.8,86.3c-0.5-1.3-0.9-2.4-1.3-3.5c-0.1,0-0.2,0-0.3,0c-0.1,1.1-0.1,2.2-0.2,3.5c-0.7,0-1.3,0-2,0c0-3.1,0-6.2,0-9.4
				c0.9,0,1.7,0,2.7,0c0.7,1.9,1.3,3.8,2,5.7c0.1,0,0.2,0,0.3,0c0.7-1.9,1.4-3.8,2.1-5.8c0.9,0,1.7,0,2.7,0c0,3.2,0,6.2,0,9.4
				c-0.7,0-1.3,0-2,0c0-1.2,0-2.3,0-3.4c-0.1,0-0.2-0.1-0.4-0.1c-0.5,1.2-0.9,2.3-1.4,3.5C491.3,86.3,490.6,86.3,489.8,86.3z"/>
			<path d="M362.3,119.4c3,0,5.7,0,8.5,0c0,3.7,0,7.3,0,11.2C367,127.5,364.4,123.9,362.3,119.4z"/>
			<path d="M137.3,51.4c-2.2,0-4.4,0-6.7,0c-1-3.7-2-7.4-2.9-11.1c0.5-0.2,0.9-0.4,1.3-0.6C131.7,43.6,134.5,47.5,137.3,51.4z"/>
			<path d="M484.2,76.9c0,0.7,0.1,1.2,0.1,1.9c-1.1,0.1-2,0.1-3.2,0.2c0,2.5,0,4.8,0,7.3c-0.9,0-1.5,0-2.4,0c0-2.5,0-4.8,0-7.3
				c-1-0.1-1.8-0.1-2.8-0.2c0-0.6,0-1.2,0-1.9C478.7,76.9,481.3,76.9,484.2,76.9z"/>
		</g>
	</g>
</g>
</svg>
